<svg width="22" height="16" viewBox="0 0 22 16" fill="none" xmlns="http://www.w3.org/2000/svg">
<path d="M17.73 1.4101L16.45 2.4101L11 6.4601L5.55001 2.3701L4.27001 1.3701C3.96847 1.12064 3.60036 0.965136 3.2113 0.922846C2.82224 0.880556 2.42932 0.953339 2.08122 1.13218C1.73312 1.31102 1.44514 1.58806 1.25295 1.92897C1.06077 2.26988 0.972821 2.65969 1.00001 3.0501V14.6401C1.00001 15.0008 1.1433 15.3467 1.39835 15.6018C1.6534 15.8568 1.99932 16.0001 2.36001 16.0001H5.55001V8.2801L11 12.3701L16.45 8.2801V16.0001H19.64C20.0007 16.0001 20.3466 15.8568 20.6017 15.6018C20.8567 15.3467 21 15.0008 21 14.6401V3.0501C21.0188 2.66306 20.9247 2.2789 20.7293 1.94432C20.5338 1.60974 20.2453 1.33914 19.899 1.16543C19.5526 0.99171 19.1632 0.922355 18.7782 0.965791C18.3931 1.00923 18.029 1.16358 17.73 1.4101Z" fill="white"/>
</svg>
